<svg xmlns="http://www.w3.org/2000/svg" viewBox="0 0 61 40"><defs><style>.cls-1{fill:#64b134;}</style></defs><title>a011</title><g id="图层_2" data-name="图层 2"><g id="图层_1-2" data-name="图层 1"><path class="cls-1" d="M59.06,2H2.1V38h57ZM30.5,5.12,35,9.59H32.34v2.62H28.66V9.59H26ZM14.71,21.84H12.09v2.64L7.62,20l4.47-4.48v2.64h2.62Zm15.79,13L26,30.41h2.64V27.79h3.68v2.62H35Zm0-9.81c-6.19,0-11.21-2.27-11.21-5.07s5-5.07,11.21-5.07S41.71,17.2,41.71,20,36.69,25.07,30.5,25.07Zm18.41-.59V21.84H46.29V18.16h2.62V15.52L53.38,20Z"/><path class="cls-1" d="M0,0V40H61V0ZM60.06,39H1.1V1h59Z"/></g></g></svg>