<svg xmlns="http://www.w3.org/2000/svg" viewBox="0 0 61 40"><g id="图层_2" data-name="图层 2"><g id="图层_1-2" data-name="图层 1"><path d="M0,0V40H61V0ZM60,39H1V1H60Z"/><path d="M2,38H30V2H2ZM13.72,16.18a7.36,7.36,0,0,0,1.54-.63,6.37,6.37,0,0,0,1.26-.83H17V24H15.82V16.24a3.72,3.72,0,0,1-.91.6,5.52,5.52,0,0,1-1.19.47Z"/><path d="M59,38V2H31V38ZM42.18,23.55a3.71,3.71,0,0,1,.21-1.33,3.44,3.44,0,0,1,.71-1.07,10.71,10.71,0,0,1,1.53-1.25,6,6,0,0,0,1.46-1.31,2.23,2.23,0,0,0,.39-1.29A1.46,1.46,0,0,0,46,16.15a1.81,1.81,0,0,0-1.26-.42,2.54,2.54,0,0,0-1.14.29,3.69,3.69,0,0,0-1.07.82V15.73a2.94,2.94,0,0,1,1-.71,3.22,3.22,0,0,1,1.33-.25,2.89,2.89,0,0,1,2,.66,2.25,2.25,0,0,1,.75,1.78A3.27,3.27,0,0,1,47.16,19a5.47,5.47,0,0,1-1.58,1.5c-.75.52-1.26.9-1.52,1.12a2.4,2.4,0,0,0-.53.65,1.61,1.61,0,0,0-.16.76h4.52v1H42.18Z"/></g></g></svg>
