<svg xmlns="http://www.w3.org/2000/svg" viewBox="0 0 61 40"><defs><style>.cls-1{fill:#64b134;}</style></defs><title>D</title><g id="图层_2" data-name="图层 2"><g id="图层_1-2" data-name="图层 1"><path class="cls-1" d="M0,0V40H61V0ZM1,1H60V39H1Z"/><path class="cls-1" d="M41,2H2V38H41ZM17.78,24.34a3.33,3.33,0,0,1-2.37.82,3.8,3.8,0,0,1-1.91-.38V23.61a3.46,3.46,0,0,0,1.88.59,2.2,2.2,0,0,0,1.53-.52,1.77,1.77,0,0,0,.58-1.39,1.61,1.61,0,0,0-.61-1.35,2.62,2.62,0,0,0-1.71-.49,14.22,14.22,0,0,0-1.54.08L14,15.92h4.25v1H14.93l-.19,2.57.83,0a3.31,3.31,0,0,1,2.26.72,2.52,2.52,0,0,1,.83,2A2.79,2.79,0,0,1,17.78,24.34Z"/><path class="cls-1" d="M59,38V2H42V38H59ZM49.86,6.09a3.24,3.24,0,0,0,.77-.32,2.74,2.74,0,0,0,.63-.41h.22V10h-.57V6.12a1.81,1.81,0,0,1-.46.3,2.46,2.46,0,0,1-.59.23Zm-.27,11.68a1.63,1.63,0,0,1,.11-.66,1.84,1.84,0,0,1,.35-.54,5,5,0,0,1,.77-.62,3,3,0,0,0,.72-.66,1.08,1.08,0,0,0,.2-.64.75.75,0,0,0-.23-.57.92.92,0,0,0-.63-.21,1.2,1.2,0,0,0-.57.14,2,2,0,0,0-.54.41v-.56a1.6,1.6,0,0,1,.51-.35,1.69,1.69,0,0,1,.66-.12,1.49,1.49,0,0,1,1,.32,1.16,1.16,0,0,1,.38.9,1.6,1.6,0,0,1-.23.86,2.73,2.73,0,0,1-.79.75c-.38.27-.63.45-.76.57a1.07,1.07,0,0,0-.27.32.89.89,0,0,0-.07.38h2.25V18H49.59Zm.9,6.12h-.37v-.47h.36c.73,0,1.09-.27,1.09-.81s-.28-.75-.83-.75a1.43,1.43,0,0,0-.9.33v-.55a2,2,0,0,1,1-.25,1.4,1.4,0,0,1,.93.3,1,1,0,0,1,.35.79,1.1,1.1,0,0,1-.91,1.14h0A1.23,1.23,0,0,1,52,24a1,1,0,0,1,.28.73,1.22,1.22,0,0,1-.44,1,1.73,1.73,0,0,1-1.17.38,2,2,0,0,1-1-.24v-.6a1.67,1.67,0,0,0,1.05.36,1.08,1.08,0,0,0,.74-.23.75.75,0,0,0,.28-.62C51.73,24.18,51.32,23.89,50.49,23.89Zm-1.2,8.6A15.68,15.68,0,0,0,50.43,31a13.74,13.74,0,0,0,.94-1.56H52v3h.68v.47H52V34h-.56V32.93H49.29Z"/><path class="cls-1" d="M51.41,30.3c-.2.36-.42.72-.65,1.06s-.51.71-.82,1.1h1.47Z"/></g></g></svg>