<svg xmlns="http://www.w3.org/2000/svg" viewBox="0 0 61 40"><defs><style>.cls-1{fill:#64b134;}</style></defs><title>E</title><g id="图层_2" data-name="图层 2"><g id="图层_1-2" data-name="图层 1"><path class="cls-1" d="M0,0V40H61V0ZM60,16V39H1V1H38V2H2V38H59V16H38V1H60ZM17,21.15a1.81,1.81,0,0,0-1.26-.42,2.54,2.54,0,0,0-1.14.29,3.69,3.69,0,0,0-1.07.82V20.73a2.94,2.94,0,0,1,1-.71,3.19,3.19,0,0,1,1.33-.25,2.89,2.89,0,0,1,2,.66,2.27,2.27,0,0,1,.75,1.79A3.26,3.26,0,0,1,18.16,24a5.6,5.6,0,0,1-1.58,1.5c-.76.52-1.26.9-1.52,1.12a2.29,2.29,0,0,0-.53.66,1.54,1.54,0,0,0-.16.75h4.52v1H13.18v-.45a3.71,3.71,0,0,1,.21-1.33,3.27,3.27,0,0,1,.71-1.07,10.71,10.71,0,0,1,1.53-1.25,6,6,0,0,0,1.46-1.31,2.23,2.23,0,0,0,.39-1.29A1.5,1.5,0,0,0,17,21.15Z"/><path class="cls-1" d="M39,15H59V2H39Zm8.1-9.51A6.65,6.65,0,0,0,48.39,5a6.15,6.15,0,0,0,1-.69h.36V12h-.95V5.53a3,3,0,0,1-.76.5,3.9,3.9,0,0,1-1,.39Z"/></g></g></svg>