<svg xmlns="http://www.w3.org/2000/svg" viewBox="0 0 61 40"><defs><style>.cls-1{fill:#64b134;}</style></defs><title>G</title><g id="图层_2" data-name="图层 2"><g id="图层_1-2" data-name="图层 1"><path class="cls-1" d="M0,0V40H61V0ZM60,39H1V1H60V39Z"/><path class="cls-1" d="M45.16,19.2a1.51,1.51,0,0,0,1.22-.55,2.11,2.11,0,0,0,.47-1.42,2.18,2.18,0,0,0-.44-1.45,1.57,1.57,0,0,0-1.26-.53,1.61,1.61,0,0,0-1.25.53A1.8,1.8,0,0,0,43.41,17a2.45,2.45,0,0,0,.48,1.53A1.5,1.5,0,0,0,45.16,19.2Z"/><path class="cls-1" d="M2,24H23V39h0V38H59V2H2ZM43.21,12.19a3.2,3.2,0,0,1,2.72-1.42,3.54,3.54,0,0,1,1.52.27v1.05A3.27,3.27,0,0,0,46,11.73a2.21,2.21,0,0,0-1.89,1,4.89,4.89,0,0,0-.73,2.8h0a2.16,2.16,0,0,1,2.06-1.24,2.42,2.42,0,0,1,1.88.76,2.89,2.89,0,0,1,.7,2,3.06,3.06,0,0,1-.81,2.19,2.72,2.72,0,0,1-2.07.85A2.55,2.55,0,0,1,43,19.07,5.17,5.17,0,0,1,42.17,16,6.31,6.31,0,0,1,43.21,12.19Z"/><path class="cls-1" d="M2,38H22V25H2Zm8.1-9.51A6.65,6.65,0,0,0,11.39,28a6.15,6.15,0,0,0,1-.69h.36V35h-1V28.53a3,3,0,0,1-.76.5,3.9,3.9,0,0,1-1,.39Z"/></g></g></svg>