<?xml version="1.0" standalone="no"?><!DOCTYPE svg PUBLIC "-//W3C//DTD SVG 1.1//EN" "http://www.w3.org/Graphics/SVG/1.1/DTD/svg11.dtd"><svg t="1607995429665" class="icon" viewBox="0 0 1024 1024" version="1.1" xmlns="http://www.w3.org/2000/svg" p-id="3778" xmlns:xlink="http://www.w3.org/1999/xlink" width="64" height="64"><defs><style type="text/css"></style></defs><path d="M861.184 602.112q0 14.336-9.216 23.04t-21.504 8.704q-16.384 0-24.576-10.752t-8.192-23.04l0-23.552-579.584 1.024 0 23.552q0 12.288-8.192 22.016t-22.528 9.728q-14.336 1.024-23.552-8.192t-10.24-23.552l0-24.576q-39.936-3.072-63.488-22.016t-36.352-43.008-16.384-47.616-3.584-34.816q0-30.72 12.288-57.344t31.232-46.592 42.496-31.744 45.056-11.776l705.536 0q21.504 0 44.544 11.776t41.472 31.744 30.208 46.592 11.776 57.344q0 32.768-13.312 59.904t-33.792 46.592-44.544 30.208-45.568 10.752l0 25.6zM230.4 343.04l-23.552 0 0 165.888 23.552 0 0-165.888zM291.84 343.04l-23.552 0 0 165.888 23.552 0 0-165.888zM351.232 343.04l-22.528 0 0 165.888 22.528 0 0-165.888zM411.648 343.04l-23.552 0 0 165.888 23.552 0 0-165.888zM167.936 343.04l-22.528 0 0 165.888 22.528 0 0-165.888zM770.048 318.464q-22.528 0-42.496 8.704t-34.816 23.552-23.552 34.816-8.704 42.496 8.704 42.496 23.552 34.816 34.816 23.552 42.496 8.704 42.496-8.704 34.816-23.552 23.552-34.816 8.704-42.496-8.704-42.496-23.552-34.816-34.816-23.552-42.496-8.704zM836.608 428.032q0 27.648-19.456 47.104t-47.104 19.456-47.104-19.456-19.456-47.104 19.456-47.104 47.104-19.456 47.104 19.456 19.456 47.104z" p-id="3779" fill="#8a8a8a"></path></svg>