<svg xmlns="http://www.w3.org/2000/svg" viewBox="0 0 61 40"><defs><style>.cls-1{fill:#64b134;}</style></defs><title>a001</title><g id="图层_2" data-name="图层 2"><g id="图层_1-2" data-name="图层 1"><path class="cls-1" d="M38.22,15a16.71,16.71,0,0,1-1.08,1.38H40A11.28,11.28,0,0,0,41.11,15Z"/><path class="cls-1" d="M42,17.2H40.29v1.49a8,8,0,0,1-.18,1.82H42Z"/><path class="cls-1" d="M37.42,20.51h1.66a7.24,7.24,0,0,0,.19-1.84V17.2H37.42Z"/><path class="cls-1" d="M59.06,2H2.1V38h57ZM18.37,22.67a1.16,1.16,0,0,0,.62-1V17.83l-1.65.35-.18-.94L19,16.85V13.41h1v3.23l2.63-.56.18.94-2.81.6v4.22l2.73-1.15a5.51,5.51,0,0,0,.18.9c-3.32,1.5-3.77,1.75-4.05,2A3.23,3.23,0,0,0,18.37,22.67Zm11.45-8c-.2,7.11-.35,9.47-.91,10.2a1.35,1.35,0,0,1-1.08.6,18.46,18.46,0,0,1-2,0,2.42,2.42,0,0,0-.32-1.06c.81.07,1.56.07,1.87.07a.58.58,0,0,0,.56-.25c.44-.51.64-2.83.82-9.14H25.9c-.1,4.35-.41,8.41-4,10.55a2.69,2.69,0,0,0-.77-.81c3.48-1.92,3.7-5.72,3.78-9.74H22.62v-1h7.21S29.83,14.51,29.82,14.65Zm4.26,9.71c0,.57-.11.87-.46,1a3.5,3.5,0,0,1-1.62.21,6.61,6.61,0,0,0-.31-1c.52,0,1,0,1.15,0s.22-.06.22-.24V20.77c-.53.19-1.05.34-1.51.48l-.27-1c.49-.11,1.11-.31,1.78-.5V16.63H31.44v-1h1.62v-2.8h1v2.8h1.31v1H34.08v2.8L35.43,19l.14,1-1.49.48Zm9.49,1.25a8.23,8.23,0,0,1-4-3.66,8.39,8.39,0,0,1-4.24,3.71,3.54,3.54,0,0,0-.72-.73c2.41-1.06,3.59-2.31,4.14-3.51H35.41v-.91h1V17.08l-.26.23a3,3,0,0,0-.69-.72,10.34,10.34,0,0,0,2.79-3.76l1,.18a10.61,10.61,0,0,1-.53,1.07h3l.17-.06.7.48a14.12,14.12,0,0,1-1.42,1.86H43v4.15h1v.91H40.33a7.15,7.15,0,0,0,3.89,3.36A4.11,4.11,0,0,0,43.57,25.61Z"/><path class="cls-1" d="M0,0V40H61V0ZM60.06,39H1.1V1h59Z"/></g></g></svg>