<svg xmlns="http://www.w3.org/2000/svg" viewBox="0 0 61 40"><defs><style>.cls-1{fill:#64b134;}</style></defs><title>a012</title><g id="图层_2" data-name="图层 2"><g id="图层_1-2" data-name="图层 1"><path class="cls-1" d="M59.06,2H2.1V38h57ZM28.66,7.73V5.12h3.68V7.73H35L30.5,12.21,26,7.73ZM10.23,24.48V21.84H7.62V18.16h2.61V15.52L14.71,20Zm22.11,7.79v2.61H28.66V32.27H26l4.48-4.48L35,32.27Zm-1.84-7.2c-6.19,0-11.21-2.27-11.21-5.07s5-5.07,11.21-5.07S41.71,17.2,41.71,20,36.69,25.07,30.5,25.07Zm22.88-3.23H50.77v2.64L46.29,20l4.48-4.48v2.64h2.61Z"/><path class="cls-1" d="M0,0V40H61V0ZM60.06,39H1.1V1h59Z"/></g></g></svg>