<svg xmlns="http://www.w3.org/2000/svg" viewBox="0 0 61 40"><defs><style>.cls-1{fill:#64b134;}</style></defs><title>B</title><g id="图层_2" data-name="图层 2"><g id="图层_1-2" data-name="图层 1"><path class="cls-1" d="M0,0V40H61V0ZM30,39H1V21H1V1H60V39Z"/><path class="cls-1" d="M2,2V20H30V2H2ZM17,16H15.82V8.24a3.72,3.72,0,0,1-.91.6,5.52,5.52,0,0,1-1.19.47V8.18a7.36,7.36,0,0,0,1.54-.63,6.37,6.37,0,0,0,1.26-.83H17Z"/><path class="cls-1" d="M45.16,23.2a1.51,1.51,0,0,0,1.22-.55,2.13,2.13,0,0,0,.47-1.42,2.18,2.18,0,0,0-.44-1.45,1.57,1.57,0,0,0-1.26-.53,1.61,1.61,0,0,0-1.25.53A1.76,1.76,0,0,0,43.41,21a2.45,2.45,0,0,0,.48,1.53A1.5,1.5,0,0,0,45.16,23.2Z"/><path class="cls-1" d="M31,21V38H59V2H31Zm12.21-4.81a3.2,3.2,0,0,1,2.72-1.42,3.71,3.71,0,0,1,1.52.26v1.06A3.27,3.27,0,0,0,46,15.73a2.21,2.21,0,0,0-1.89,1,4.89,4.89,0,0,0-.73,2.8h0a2.17,2.17,0,0,1,2.06-1.25,2.43,2.43,0,0,1,1.88.77,2.89,2.89,0,0,1,.7,2,3.06,3.06,0,0,1-.81,2.19,2.72,2.72,0,0,1-2.07.85A2.55,2.55,0,0,1,43,23.07,5.17,5.17,0,0,1,42.17,20,6.31,6.31,0,0,1,43.21,16.19Z"/></g></g></svg>