<svg xmlns="http://www.w3.org/2000/svg" viewBox="0 0 61 40"><defs><style>.cls-1{fill:#64b134;}</style></defs><title>C</title><g id="图层_2" data-name="图层 2"><g id="图层_1-2" data-name="图层 1"><path class="cls-1" d="M0,0V40H61V0ZM60,39H1V1H60Z"/><path class="cls-1" d="M30,2H2V19H30ZM17,16H15.82V8.24a3.72,3.72,0,0,1-.91.6,5.52,5.52,0,0,1-1.19.47V8.18a7.36,7.36,0,0,0,1.54-.63,6.37,6.37,0,0,0,1.26-.83H17Z"/><path class="cls-1" d="M2,20V38H30V20ZM18.89,34H13.18v-.45a3.71,3.71,0,0,1,.21-1.33,3.44,3.44,0,0,1,.71-1.07,10.71,10.71,0,0,1,1.53-1.25,6,6,0,0,0,1.46-1.31,2.23,2.23,0,0,0,.39-1.29A1.46,1.46,0,0,0,17,26.15a1.81,1.81,0,0,0-1.26-.42,2.54,2.54,0,0,0-1.14.29,3.69,3.69,0,0,0-1.07.82V25.73a2.94,2.94,0,0,1,1-.71,3.22,3.22,0,0,1,1.33-.25,2.89,2.89,0,0,1,2,.66,2.25,2.25,0,0,1,.75,1.78A3.27,3.27,0,0,1,18.16,29a5.47,5.47,0,0,1-1.58,1.5c-.75.52-1.26.9-1.52,1.12a2.4,2.4,0,0,0-.53.65,1.61,1.61,0,0,0-.16.76h4.52Z"/><polygon class="cls-1" points="30 39 1 39 1 39 30 39 30 39 30 39"/><rect class="cls-1" x="2" y="20" width="28"/><path class="cls-1" d="M31,20V38H59V2H31V20Zm12.21-3.81a3.2,3.2,0,0,1,2.72-1.42,3.54,3.54,0,0,1,1.52.27v1.05A3.27,3.27,0,0,0,46,15.73a2.21,2.21,0,0,0-1.89,1,4.89,4.89,0,0,0-.73,2.8h0a2.17,2.17,0,0,1,2.06-1.25,2.43,2.43,0,0,1,1.88.77,2.89,2.89,0,0,1,.7,2,3.06,3.06,0,0,1-.81,2.19,2.72,2.72,0,0,1-2.07.85A2.55,2.55,0,0,1,43,23.07,5.17,5.17,0,0,1,42.17,20,6.31,6.31,0,0,1,43.21,16.19Z"/><path class="cls-1" d="M45.16,23.2a1.51,1.51,0,0,0,1.22-.55,2.11,2.11,0,0,0,.47-1.42,2.18,2.18,0,0,0-.44-1.45,1.57,1.57,0,0,0-1.26-.53,1.61,1.61,0,0,0-1.25.53A1.8,1.8,0,0,0,43.41,21a2.45,2.45,0,0,0,.48,1.53A1.5,1.5,0,0,0,45.16,23.2Z"/><polygon class="cls-1" points="60 39 31 39 31 39 60 39 60 1 60 1 60 39"/><polygon class="cls-1" points="31 19 31 19 31 19 31 2 31 2 31 19"/><polygon class="cls-1" points="31 39 30 39 30 39 31 39 31 39 31 39"/><rect class="cls-1" x="31" y="20" height="18"/><polygon class="cls-1" points="31 20 31 20 31 19 31 19 31 20 31 20"/></g></g></svg>