<svg xmlns="http://www.w3.org/2000/svg" viewBox="0 0 61 40"><defs><style>.cls-1{fill:#64b134;}</style></defs><title>F</title><g id="图层_2" data-name="图层 2"><g id="图层_1-2" data-name="图层 1"><path class="cls-1" d="M0,0V40H61V0ZM60,16V39H1V1H38V2H2V38H59V16H38V1H60ZM14.37,24.55a2.17,2.17,0,0,1,2.06-1.25,2.43,2.43,0,0,1,1.88.77,2.89,2.89,0,0,1,.7,2,3.06,3.06,0,0,1-.81,2.19,2.72,2.72,0,0,1-2.07.85A2.55,2.55,0,0,1,14,28.07,5.1,5.1,0,0,1,13.17,25a6.31,6.31,0,0,1,1-3.81,3.2,3.2,0,0,1,2.72-1.42,3.54,3.54,0,0,1,1.52.27v1.05A3.27,3.27,0,0,0,17,20.73a2.21,2.21,0,0,0-1.89,1,4.89,4.89,0,0,0-.73,2.8Z"/><path class="cls-1" d="M16.16,28.2a1.51,1.51,0,0,0,1.22-.55,2.11,2.11,0,0,0,.47-1.42,2.18,2.18,0,0,0-.44-1.45,1.57,1.57,0,0,0-1.26-.53,1.65,1.65,0,0,0-1.26.53A1.8,1.8,0,0,0,14.41,26a2.45,2.45,0,0,0,.48,1.53A1.5,1.5,0,0,0,16.16,28.2Z"/><path class="cls-1" d="M39,15H59V2H39Zm8.1-9.51A6.65,6.65,0,0,0,48.39,5a6.15,6.15,0,0,0,1-.69h.36V12h-.95V5.53a3,3,0,0,1-.76.5,3.9,3.9,0,0,1-1,.39Z"/></g></g></svg>