<svg xmlns="http://www.w3.org/2000/svg" viewBox="0 0 18.61 10.7"><defs><style>.cls-1{fill:#fff;}</style></defs><title>投影</title><g id="图层_2" data-name="图层 2"><g id="图层_1-2" data-name="图层 1"><circle class="cls-1" cx="5.96" cy="5.35" r="1.95"/><path class="cls-1" d="M17.42,1.2H9.3a5.26,5.26,0,0,0-6.69,0H1.19A1.19,1.19,0,0,0,0,2.39V8.31A1.19,1.19,0,0,0,1.19,9.5H2.61a5.26,5.26,0,0,0,6.69,0h8.12a1.19,1.19,0,0,0,1.19-1.19V2.39A1.2,1.2,0,0,0,17.42,1.2ZM6,9.17A3.82,3.82,0,1,1,9.77,5.35,3.82,3.82,0,0,1,6,9.17ZM16,7.84h-3.1a1,1,0,1,1,0-2H16a1,1,0,0,1,0,2Zm0-3h-3.1a1,1,0,0,1,0-2H16a1,1,0,0,1,0,2Z"/></g></g></svg>