<svg xmlns="http://www.w3.org/2000/svg" viewBox="0 0 61 40"><defs><style>.cls-1{fill:#64b134;}</style></defs><title>a002</title><g id="图层_2" data-name="图层 2"><g id="图层_1-2" data-name="图层 1"><path class="cls-1" d="M40.65,20.9H34.87a8.52,8.52,0,0,0,2.86,2.27A8.28,8.28,0,0,0,40.65,20.9Z"/><path class="cls-1" d="M59.06,2H2.1V38h57ZM31.76,14.42h5.73a9.85,9.85,0,0,0-.72-1.3l1-.25a12,12,0,0,1,.88,1.55h5.05v.93H39.83v4.22h-1V15.35H36.63v4.23h-1V15.35H31.76Zm11.81,4.22-.82.53a17.25,17.25,0,0,0-2.38-2.7l.79-.45A17.54,17.54,0,0,1,43.57,18.64Zm-8.76-2.45a9.24,9.24,0,0,1-2,3A4.66,4.66,0,0,0,32,18.6a7.17,7.17,0,0,0,1.87-2.66Zm-16.3-3a14.88,14.88,0,0,1,2.27,1.46l-.63.82a15.57,15.57,0,0,0-2.25-1.54Zm-.63,3.74a17.9,17.9,0,0,1,2.39,1.33l-.61.84a17.71,17.71,0,0,0-2.36-1.41Zm.63,8.73-.92-.56a42.72,42.72,0,0,0,1.93-4.44l.83.54C19.82,22.62,19.13,24.34,18.51,25.62Zm5.33.11H22.9v-3l-2.16.57-.24-1c.66-.12,1.49-.32,2.4-.54V19.9h-1a1.87,1.87,0,0,0-1,.2,4.81,4.81,0,0,0-.31-.87c.23-.07.39-.52.58-1.14.11-.35.37-1.31.6-2.46H20.73v-.94H22c.08-.55.16-1.11.21-1.67l.95.16c-.06.49-.14,1-.24,1.51H25.2v.94H22.67A27.18,27.18,0,0,1,21.75,19H22.9v-2.1h.94V19h1.3v.95h-1.3v1.67l1.4-.35.1.88-1.5.39Zm6.26-7.4H29v7.4h-.91v-7.4H26.64v.56c0,2.52-.18,4.84-1.39,6.92a3.39,3.39,0,0,0-.73-.6,12.6,12.6,0,0,0,1.21-6.33v-4.6a14.19,14.19,0,0,0,3.47-1.09l.63.87a15.11,15.11,0,0,1-3.19.95v2.41H30.1Zm13.37,7.5A18.48,18.48,0,0,1,37.7,24.2,22.4,22.4,0,0,1,32,25.83a4.25,4.25,0,0,0-.52-.93,21.86,21.86,0,0,0,5.17-1.26,9.56,9.56,0,0,1-2.91-2.74H32.61V20h8.76l.18,0,.67.47a9.22,9.22,0,0,1-3.43,3.27,19.87,19.87,0,0,0,5.27,1.26A3.16,3.16,0,0,0,43.47,25.83Z"/><path class="cls-1" d="M0,0V40H61V0ZM60.06,39H1.1V1h59Z"/></g></g></svg>