<svg xmlns="http://www.w3.org/2000/svg" viewBox="0 0 61 40"><defs><style>.cls-1{fill:#64b134;}</style></defs><title>a010</title><g id="图层_2" data-name="图层 2"><g id="图层_1-2" data-name="图层 1"><path class="cls-1" d="M0,0V40H61V0ZM60.06,39H1.1V1h59Z"/><path class="cls-1" d="M59.06,2H2.1V38h57ZM28.66,7.73V5.12h3.68V7.73H35L30.5,12.21,26,7.73ZM10.23,24.48V21.84H7.62V18.16h2.61V15.52L14.71,20Zm22.11,7.79v2.61H28.66V32.27H26l4.48-4.48L35,32.27Zm-1.84-7.5L19.73,20,30.5,15.23,41.27,20Zm22.88-2.93H50.77v2.64L46.29,20l4.48-4.48v2.64h2.61Z"/></g></g></svg>