<svg xmlns="http://www.w3.org/2000/svg" viewBox="0 0 61 40"><defs><style>.cls-1{fill:#64b134;}</style></defs><title>资源 25</title><g id="图层_2" data-name="图层 2"><g id="图层_1-2" data-name="图层 1"><path class="cls-1" d="M59,2H2V38H59ZM30.5,10.88a4.56,4.56,0,1,1-4.56,4.56A4.56,4.56,0,0,1,30.5,10.88Zm5.07,18.24H25.43C24,29.12,22.9,27.71,22.9,26c0-3.12.77-6.73,3.88-6.73a5.31,5.31,0,0,0,7.44,0c3.11,0,3.88,3.61,3.88,6.73C38.1,27.71,37,29.12,35.57,29.12Z"/><path class="cls-1" d="M0,0V40H61V0ZM60,39H1V1H60Z"/></g></g></svg>