<svg xmlns="http://www.w3.org/2000/svg" viewBox="0 0 61 40"><defs><style>.cls-1{fill:#64b134;}</style></defs><title>资源 24</title><g id="图层_2" data-name="图层 2"><g id="图层_1-2" data-name="图层 1"><path class="cls-1" d="M59,2H2V38H59ZM39.36,10.88a4.56,4.56,0,1,1-4.56,4.56A4.56,4.56,0,0,1,39.36,10.88Zm-17.72,0a4.56,4.56,0,1,1-4.56,4.56A4.56,4.56,0,0,1,21.64,10.88Zm5.07,18.24H16.57C15.18,29.12,14,27.71,14,26c0-3.12.77-6.73,3.88-6.73a5.3,5.3,0,0,0,7.43,0c3.11,0,3.89,3.61,3.89,6.73C29.24,27.71,28.1,29.12,26.71,29.12Zm17.72,0H34.29c-1.39,0-2.53-1.41-2.53-3.15,0-3.12.78-6.73,3.89-6.73a5.3,5.3,0,0,0,7.43,0C46.19,19.24,47,22.85,47,26,47,27.71,45.82,29.12,44.43,29.12Z"/><path class="cls-1" d="M0,0V40H61V0ZM60,39H1V1H60Z"/></g></g></svg>