<svg xmlns="http://www.w3.org/2000/svg" viewBox="0 0 61 40"><defs><style>.cls-1{fill:#64b134;}</style></defs><title>资源 22</title><g id="图层_2" data-name="图层 2"><g id="图层_1-2" data-name="图层 1"><path class="cls-1" d="M59,2H2V38H59ZM40,6.7a3,3,0,1,1-3,3A3,3,0,0,1,40,6.7Zm-19,0a3,3,0,1,1-3,3A3,3,0,0,1,21,6.7Zm3.36,26.6H17.64A1.91,1.91,0,0,1,16,31.22c0-2.06.51-4.45,2.57-4.45a3.49,3.49,0,0,0,4.91,0c2.06,0,2.57,2.39,2.57,4.45A1.91,1.91,0,0,1,24.35,33.3Zm-6.37-9a3,3,0,1,1,3,3A3,3,0,0,1,18,24.26Zm6.37-5.5H17.64A1.91,1.91,0,0,1,16,16.68c0-2.07.51-4.46,2.57-4.46a3.49,3.49,0,0,0,4.91,0c2.06,0,2.57,2.39,2.57,4.46A1.91,1.91,0,0,1,24.35,18.76Zm19,14.54H36.65A1.91,1.91,0,0,1,35,31.22c0-2.06.51-4.45,2.57-4.45a3.49,3.49,0,0,0,4.91,0c2.06,0,2.57,2.39,2.57,4.45A1.91,1.91,0,0,1,43.36,33.3Zm-6.37-9a3,3,0,1,1,3,3A3,3,0,0,1,37,24.26Zm6.37-5.5H36.65A1.91,1.91,0,0,1,35,16.68c0-2.07.51-4.46,2.57-4.46a3.49,3.49,0,0,0,4.91,0c2.06,0,2.57,2.39,2.57,4.46A1.91,1.91,0,0,1,43.36,18.76Z"/><path class="cls-1" d="M0,0V40H61V0ZM60,39H1V1H60Z"/></g></g></svg>