<svg xmlns="http://www.w3.org/2000/svg" viewBox="0 0 61 40"><defs><style>.cls-1{fill:#64b134;}</style></defs><title>资源 23</title><g id="图层_2" data-name="图层 2"><g id="图层_1-2" data-name="图层 1"><path class="cls-1" d="M59,2H2V38H59ZM40,6.7a3,3,0,1,1-3,3A3,3,0,0,1,40,6.7ZM30.5,21.24a3,3,0,1,1-3,3A3,3,0,0,1,30.5,21.24ZM21,6.7a3,3,0,1,1-3,3A3,3,0,0,1,21,6.7Zm3.36,12.06H17.64A1.91,1.91,0,0,1,16,16.68c0-2.07.51-4.46,2.57-4.46a3.49,3.49,0,0,0,4.91,0c2.06,0,2.57,2.39,2.57,4.46A1.91,1.91,0,0,1,24.35,18.76Zm9.5,14.54h-6.7a1.92,1.92,0,0,1-1.68-2.08c0-2.06.51-4.45,2.57-4.45a3.5,3.5,0,0,0,4.92,0c2.06,0,2.57,2.39,2.57,4.45A1.92,1.92,0,0,1,33.85,33.3Zm9.51-14.54H36.65A1.91,1.91,0,0,1,35,16.68c0-2.07.51-4.46,2.57-4.46a3.49,3.49,0,0,0,4.91,0c2.06,0,2.57,2.39,2.57,4.46A1.91,1.91,0,0,1,43.36,18.76Z"/><path class="cls-1" d="M0,0V40H61V0ZM60,39H1V1H60Z"/></g></g></svg>