<svg id="图层_1" data-name="图层 1" xmlns="http://www.w3.org/2000/svg" viewBox="0 0 44 27.85"><title>ty</title><path d="M43.92,11H6.08A3.08,3.08,0,0,0,3,14.08V29.92A3.08,3.08,0,0,0,6.08,33H43.92A3.08,3.08,0,0,0,47,29.92V14.08A3.08,3.08,0,0,0,43.92,11ZM20,27H9a1,1,0,0,1,0-2H20a1,1,0,0,1,0,2Zm0-4H9a1,1,0,0,1,0-2H20a1,1,0,0,1,0,2Zm0-4H9a1,1,0,0,1,0-2H20a1,1,0,0,1,0,2ZM34.25,29.75A7.75,7.75,0,1,1,42,22,7.75,7.75,0,0,1,34.25,29.75Z" transform="translate(-3 -11)"/><rect x="4" y="23" width="11" height="4.85" rx="1.54" ry="1.54"/><rect x="29" y="23" width="11" height="4.85" rx="1.54" ry="1.54"/><circle cx="31.25" cy="11" r="5.9"/></svg>